<?xml version="1.0" encoding="UTF-8" standalone="no"?>
<!DOCTYPE svg PUBLIC "-//W3C//DTD SVG 1.1//EN"
 "http://www.w3.org/Graphics/SVG/1.1/DTD/svg11.dtd">
<!-- Generated by graphviz version 2.40.1 (20161225.0304)
 -->
<!-- Title: dependencies Pages: 1 -->
<svg width="568pt" height="284pt"
 viewBox="0.00 0.00 568.00 284.00" xmlns="http://www.w3.org/2000/svg" xmlns:xlink="http://www.w3.org/1999/xlink">
<g id="graph0" class="graph" transform="scale(1 1) rotate(0) translate(4 280)">
<title>dependencies</title>
<polygon fill="#ffffff" stroke="transparent" points="-4,4 -4,-280 564,-280 564,4 -4,4"/>
<text text-anchor="start" x="259.0091" y="-42.4" font-family="sans-serif" font-weight="bold" font-size="14.00" fill="#000000">Legend</text>
<polygon fill="#ffffb3" stroke="transparent" points="46,-10 46,-30 66,-30 66,-10 46,-10"/>
<text text-anchor="start" x="69.629" y="-15.4" font-family="sans-serif" font-size="14.00" fill="#000000"> &#160;Declarations</text>
<polygon fill="#8dd3c7" stroke="transparent" points="159,-10 159,-30 179,-30 179,-10 159,-10"/>
<text text-anchor="start" x="182.7251" y="-15.4" font-family="sans-serif" font-size="14.00" fill="#000000"> &#160;Module</text>
<polygon fill="#80b1d3" stroke="transparent" points="245,-10 245,-30 265,-30 265,-10 245,-10"/>
<text text-anchor="start" x="268.7812" y="-15.4" font-family="sans-serif" font-size="14.00" fill="#000000"> &#160;Bootstrap</text>
<polygon fill="#fdb462" stroke="transparent" points="342,-10 342,-30 362,-30 362,-10 342,-10"/>
<text text-anchor="start" x="365.6732" y="-15.4" font-family="sans-serif" font-size="14.00" fill="#000000"> &#160;Providers</text>
<polygon fill="#fb8072" stroke="transparent" points="438,-10 438,-30 458,-30 458,-10 438,-10"/>
<text text-anchor="start" x="461.7258" y="-15.4" font-family="sans-serif" font-size="14.00" fill="#000000"> &#160;Exports</text>
<g id="clust1" class="cluster">
<title>cluster_CommonModule</title>
<polygon fill="none" stroke="#000000" stroke-dasharray="1,5" points="8,-70 8,-268 194,-268 194,-70 8,-70"/>
</g>
<g id="clust2" class="cluster">
<title>cluster_CommonModule_declarations</title>
<polygon fill="none" stroke="#000000" points="18,-78 18,-130 184,-130 184,-78 18,-78"/>
</g>
<g id="clust5" class="cluster">
<title>cluster_CommonModule_exports</title>
<polygon fill="none" stroke="#000000" points="16,-208 16,-260 186,-260 186,-208 16,-208"/>
</g>
<g id="clust8" class="cluster">
<title>cluster_LineComponentModule</title>
<polygon fill="none" stroke="#000000" stroke-dasharray="1,5" points="202,-70 202,-268 368,-268 368,-70 202,-70"/>
</g>
<g id="clust9" class="cluster">
<title>cluster_LineComponentModule_declarations</title>
<polygon fill="none" stroke="#000000" points="224,-78 224,-130 346,-130 346,-78 224,-78"/>
</g>
<g id="clust12" class="cluster">
<title>cluster_LineComponentModule_exports</title>
<polygon fill="none" stroke="#000000" points="222,-208 222,-260 348,-260 348,-208 222,-208"/>
</g>
<g id="clust15" class="cluster">
<title>cluster_RasterComponentModule</title>
<polygon fill="none" stroke="#000000" stroke-dasharray="1,5" points="376,-70 376,-268 552,-268 552,-70 376,-70"/>
</g>
<g id="clust16" class="cluster">
<title>cluster_RasterComponentModule_declarations</title>
<polygon fill="none" stroke="#000000" points="397,-78 397,-130 531,-130 531,-78 397,-78"/>
</g>
<g id="clust19" class="cluster">
<title>cluster_RasterComponentModule_exports</title>
<polygon fill="none" stroke="#000000" points="396,-208 396,-260 532,-260 532,-208 396,-208"/>
</g>
<!-- BaseSigPlotComponent -->
<g id="node1" class="node">
<title>BaseSigPlotComponent</title>
<polygon fill="#ffffb3" stroke="#000000" points="175.78,-122 26.22,-122 26.22,-86 175.78,-86 175.78,-122"/>
<text text-anchor="middle" x="101" y="-99.8" font-family="Times,serif" font-size="14.00" fill="#000000">BaseSigPlotComponent</text>
</g>
<!-- CommonModule -->
<g id="node2" class="node">
<title>CommonModule</title>
<polygon fill="#8dd3c7" stroke="#000000" points="156.6681,-187 153.6681,-191 132.6681,-191 129.6681,-187 45.3319,-187 45.3319,-151 156.6681,-151 156.6681,-187"/>
<text text-anchor="middle" x="101" y="-164.8" font-family="Times,serif" font-size="14.00" fill="#000000">CommonModule</text>
</g>
<!-- BaseSigPlotComponent&#45;&gt;CommonModule -->
<g id="edge1" class="edge">
<title>BaseSigPlotComponent&#45;&gt;CommonModule</title>
<path fill="none" stroke="#000000" d="M101,-122.1061C101,-122.1061 101,-140.991 101,-140.991"/>
<polygon fill="#000000" stroke="#000000" points="97.5001,-140.9909 101,-150.991 104.5001,-140.991 97.5001,-140.9909"/>
</g>
<!-- BaseSigPlotComponent  -->
<g id="node3" class="node">
<title>BaseSigPlotComponent </title>
<polygon fill="#fb8072" stroke="#000000" points="177.7801,-252 24.2199,-252 24.2199,-216 177.7801,-216 177.7801,-252"/>
<text text-anchor="middle" x="101" y="-229.8" font-family="Times,serif" font-size="14.00" fill="#000000">BaseSigPlotComponent </text>
</g>
<!-- CommonModule&#45;&gt;BaseSigPlotComponent  -->
<g id="edge2" class="edge">
<title>CommonModule&#45;&gt;BaseSigPlotComponent </title>
<path fill="none" stroke="#000000" stroke-dasharray="5,2" d="M101,-187.1061C101,-187.1061 101,-205.991 101,-205.991"/>
<polygon fill="#000000" stroke="#000000" points="97.5001,-205.9909 101,-215.991 104.5001,-205.991 97.5001,-205.9909"/>
</g>
<!-- LineComponent -->
<g id="node4" class="node">
<title>LineComponent</title>
<polygon fill="#ffffb3" stroke="#000000" points="338.4902,-122 231.5098,-122 231.5098,-86 338.4902,-86 338.4902,-122"/>
<text text-anchor="middle" x="285" y="-99.8" font-family="Times,serif" font-size="14.00" fill="#000000">LineComponent</text>
</g>
<!-- LineComponentModule -->
<g id="node5" class="node">
<title>LineComponentModule</title>
<polygon fill="#8dd3c7" stroke="#000000" points="360.0407,-187 357.0407,-191 336.0407,-191 333.0407,-187 209.9593,-187 209.9593,-151 360.0407,-151 360.0407,-187"/>
<text text-anchor="middle" x="285" y="-164.8" font-family="Times,serif" font-size="14.00" fill="#000000">LineComponentModule</text>
</g>
<!-- LineComponent&#45;&gt;LineComponentModule -->
<g id="edge3" class="edge">
<title>LineComponent&#45;&gt;LineComponentModule</title>
<path fill="none" stroke="#000000" d="M285,-122.1061C285,-122.1061 285,-140.991 285,-140.991"/>
<polygon fill="#000000" stroke="#000000" points="281.5001,-140.9909 285,-150.991 288.5001,-140.991 281.5001,-140.9909"/>
</g>
<!-- LineComponent  -->
<g id="node6" class="node">
<title>LineComponent </title>
<polygon fill="#fb8072" stroke="#000000" points="340.4913,-252 229.5087,-252 229.5087,-216 340.4913,-216 340.4913,-252"/>
<text text-anchor="middle" x="285" y="-229.8" font-family="Times,serif" font-size="14.00" fill="#000000">LineComponent </text>
</g>
<!-- LineComponentModule&#45;&gt;LineComponent  -->
<g id="edge4" class="edge">
<title>LineComponentModule&#45;&gt;LineComponent </title>
<path fill="none" stroke="#000000" stroke-dasharray="5,2" d="M285,-187.1061C285,-187.1061 285,-205.991 285,-205.991"/>
<polygon fill="#000000" stroke="#000000" points="281.5001,-205.9909 285,-215.991 288.5001,-205.991 281.5001,-205.9909"/>
</g>
<!-- RasterComponent -->
<g id="node7" class="node">
<title>RasterComponent</title>
<polygon fill="#ffffb3" stroke="#000000" points="522.594,-122 405.406,-122 405.406,-86 522.594,-86 522.594,-122"/>
<text text-anchor="middle" x="464" y="-99.8" font-family="Times,serif" font-size="14.00" fill="#000000">RasterComponent</text>
</g>
<!-- RasterComponentModule -->
<g id="node8" class="node">
<title>RasterComponentModule</title>
<polygon fill="#8dd3c7" stroke="#000000" points="544.1442,-187 541.1442,-191 520.1442,-191 517.1442,-187 383.8558,-187 383.8558,-151 544.1442,-151 544.1442,-187"/>
<text text-anchor="middle" x="464" y="-164.8" font-family="Times,serif" font-size="14.00" fill="#000000">RasterComponentModule</text>
</g>
<!-- RasterComponent&#45;&gt;RasterComponentModule -->
<g id="edge5" class="edge">
<title>RasterComponent&#45;&gt;RasterComponentModule</title>
<path fill="none" stroke="#000000" d="M464,-122.1061C464,-122.1061 464,-140.991 464,-140.991"/>
<polygon fill="#000000" stroke="#000000" points="460.5001,-140.9909 464,-150.991 467.5001,-140.991 460.5001,-140.9909"/>
</g>
<!-- RasterComponent  -->
<g id="node9" class="node">
<title>RasterComponent </title>
<polygon fill="#fb8072" stroke="#000000" points="524.0947,-252 403.9053,-252 403.9053,-216 524.0947,-216 524.0947,-252"/>
<text text-anchor="middle" x="464" y="-229.8" font-family="Times,serif" font-size="14.00" fill="#000000">RasterComponent </text>
</g>
<!-- RasterComponentModule&#45;&gt;RasterComponent  -->
<g id="edge6" class="edge">
<title>RasterComponentModule&#45;&gt;RasterComponent </title>
<path fill="none" stroke="#000000" stroke-dasharray="5,2" d="M464,-187.1061C464,-187.1061 464,-205.991 464,-205.991"/>
<polygon fill="#000000" stroke="#000000" points="460.5001,-205.9909 464,-215.991 467.5001,-205.991 460.5001,-205.9909"/>
</g>
</g>
</svg>
