<?xml version="1.0" encoding="UTF-8" standalone="no"?>
<!DOCTYPE svg PUBLIC "-//W3C//DTD SVG 1.1//EN"
 "http://www.w3.org/Graphics/SVG/1.1/DTD/svg11.dtd">
<!-- Generated by graphviz version 2.40.1 (20161225.0304)
 -->
<!-- Title: dependencies Pages: 1 -->
<svg width="510pt" height="284pt"
 viewBox="0.00 0.00 510.00 284.00" xmlns="http://www.w3.org/2000/svg" xmlns:xlink="http://www.w3.org/1999/xlink">
<g id="graph0" class="graph" transform="scale(1 1) rotate(0) translate(4 280)">
<title>dependencies</title>
<polygon fill="#ffffff" stroke="transparent" points="-4,4 -4,-280 506,-280 506,4 -4,4"/>
<text text-anchor="start" x="230.0091" y="-42.4" font-family="sans-serif" font-weight="bold" font-size="14.00" fill="#000000">Legend</text>
<polygon fill="#ffffb3" stroke="transparent" points="17,-10 17,-30 37,-30 37,-10 17,-10"/>
<text text-anchor="start" x="40.629" y="-15.4" font-family="sans-serif" font-size="14.00" fill="#000000"> &#160;Declarations</text>
<polygon fill="#8dd3c7" stroke="transparent" points="130,-10 130,-30 150,-30 150,-10 130,-10"/>
<text text-anchor="start" x="153.7251" y="-15.4" font-family="sans-serif" font-size="14.00" fill="#000000"> &#160;Module</text>
<polygon fill="#80b1d3" stroke="transparent" points="216,-10 216,-30 236,-30 236,-10 216,-10"/>
<text text-anchor="start" x="239.7812" y="-15.4" font-family="sans-serif" font-size="14.00" fill="#000000"> &#160;Bootstrap</text>
<polygon fill="#fdb462" stroke="transparent" points="313,-10 313,-30 333,-30 333,-10 313,-10"/>
<text text-anchor="start" x="336.6732" y="-15.4" font-family="sans-serif" font-size="14.00" fill="#000000"> &#160;Providers</text>
<polygon fill="#fb8072" stroke="transparent" points="409,-10 409,-30 429,-30 429,-10 409,-10"/>
<text text-anchor="start" x="432.7258" y="-15.4" font-family="sans-serif" font-size="14.00" fill="#000000"> &#160;Exports</text>
<g id="clust1" class="cluster">
<title>cluster_CommonModule</title>
<polygon fill="none" stroke="#000000" stroke-dasharray="1,5" points="8,-70 8,-195 136,-195 136,-70 8,-70"/>
</g>
<g id="clust2" class="cluster">
<title>cluster_CommonModule_declarations</title>
<polygon fill="none" stroke="#000000" points="28,-78 28,-130 116,-130 116,-78 28,-78"/>
</g>
<g id="clust8" class="cluster">
<title>cluster_LineComponentModule</title>
<polygon fill="none" stroke="#000000" stroke-dasharray="1,5" points="144,-70 144,-268 310,-268 310,-70 144,-70"/>
</g>
<g id="clust9" class="cluster">
<title>cluster_LineComponentModule_declarations</title>
<polygon fill="none" stroke="#000000" points="166,-78 166,-130 288,-130 288,-78 166,-78"/>
</g>
<g id="clust12" class="cluster">
<title>cluster_LineComponentModule_exports</title>
<polygon fill="none" stroke="#000000" points="164,-208 164,-260 290,-260 290,-208 164,-208"/>
</g>
<g id="clust15" class="cluster">
<title>cluster_RasterComponentModule</title>
<polygon fill="none" stroke="#000000" stroke-dasharray="1,5" points="318,-70 318,-268 494,-268 494,-70 318,-70"/>
</g>
<g id="clust16" class="cluster">
<title>cluster_RasterComponentModule_declarations</title>
<polygon fill="none" stroke="#000000" points="339,-78 339,-130 473,-130 473,-78 339,-78"/>
</g>
<g id="clust19" class="cluster">
<title>cluster_RasterComponentModule_exports</title>
<polygon fill="none" stroke="#000000" points="338,-208 338,-260 474,-260 474,-208 338,-208"/>
</g>
<!-- undefined -->
<g id="node1" class="node">
<title>undefined</title>
<polygon fill="#ffffb3" stroke="#000000" points="107.9804,-122 36.0196,-122 36.0196,-86 107.9804,-86 107.9804,-122"/>
<text text-anchor="middle" x="72" y="-99.8" font-family="Times,serif" font-size="14.00" fill="#000000">undefined</text>
</g>
<!-- CommonModule -->
<g id="node2" class="node">
<title>CommonModule</title>
<polygon fill="#8dd3c7" stroke="#000000" points="127.6681,-187 124.6681,-191 103.6681,-191 100.6681,-187 16.3319,-187 16.3319,-151 127.6681,-151 127.6681,-187"/>
<text text-anchor="middle" x="72" y="-164.8" font-family="Times,serif" font-size="14.00" fill="#000000">CommonModule</text>
</g>
<!-- undefined&#45;&gt;CommonModule -->
<g id="edge1" class="edge">
<title>undefined&#45;&gt;CommonModule</title>
<path fill="none" stroke="#000000" d="M72,-122.1061C72,-122.1061 72,-140.991 72,-140.991"/>
<polygon fill="#000000" stroke="#000000" points="68.5001,-140.9909 72,-150.991 75.5001,-140.991 68.5001,-140.9909"/>
</g>
<!-- LineComponent -->
<g id="node3" class="node">
<title>LineComponent</title>
<polygon fill="#ffffb3" stroke="#000000" points="280.4902,-122 173.5098,-122 173.5098,-86 280.4902,-86 280.4902,-122"/>
<text text-anchor="middle" x="227" y="-99.8" font-family="Times,serif" font-size="14.00" fill="#000000">LineComponent</text>
</g>
<!-- LineComponentModule -->
<g id="node4" class="node">
<title>LineComponentModule</title>
<polygon fill="#8dd3c7" stroke="#000000" points="302.0407,-187 299.0407,-191 278.0407,-191 275.0407,-187 151.9593,-187 151.9593,-151 302.0407,-151 302.0407,-187"/>
<text text-anchor="middle" x="227" y="-164.8" font-family="Times,serif" font-size="14.00" fill="#000000">LineComponentModule</text>
</g>
<!-- LineComponent&#45;&gt;LineComponentModule -->
<g id="edge2" class="edge">
<title>LineComponent&#45;&gt;LineComponentModule</title>
<path fill="none" stroke="#000000" d="M227,-122.1061C227,-122.1061 227,-140.991 227,-140.991"/>
<polygon fill="#000000" stroke="#000000" points="223.5001,-140.9909 227,-150.991 230.5001,-140.991 223.5001,-140.9909"/>
</g>
<!-- LineComponent  -->
<g id="node5" class="node">
<title>LineComponent </title>
<polygon fill="#fb8072" stroke="#000000" points="282.4913,-252 171.5087,-252 171.5087,-216 282.4913,-216 282.4913,-252"/>
<text text-anchor="middle" x="227" y="-229.8" font-family="Times,serif" font-size="14.00" fill="#000000">LineComponent </text>
</g>
<!-- LineComponentModule&#45;&gt;LineComponent  -->
<g id="edge3" class="edge">
<title>LineComponentModule&#45;&gt;LineComponent </title>
<path fill="none" stroke="#000000" stroke-dasharray="5,2" d="M227,-187.1061C227,-187.1061 227,-205.991 227,-205.991"/>
<polygon fill="#000000" stroke="#000000" points="223.5001,-205.9909 227,-215.991 230.5001,-205.991 223.5001,-205.9909"/>
</g>
<!-- RasterComponent -->
<g id="node6" class="node">
<title>RasterComponent</title>
<polygon fill="#ffffb3" stroke="#000000" points="464.594,-122 347.406,-122 347.406,-86 464.594,-86 464.594,-122"/>
<text text-anchor="middle" x="406" y="-99.8" font-family="Times,serif" font-size="14.00" fill="#000000">RasterComponent</text>
</g>
<!-- RasterComponentModule -->
<g id="node7" class="node">
<title>RasterComponentModule</title>
<polygon fill="#8dd3c7" stroke="#000000" points="486.1442,-187 483.1442,-191 462.1442,-191 459.1442,-187 325.8558,-187 325.8558,-151 486.1442,-151 486.1442,-187"/>
<text text-anchor="middle" x="406" y="-164.8" font-family="Times,serif" font-size="14.00" fill="#000000">RasterComponentModule</text>
</g>
<!-- RasterComponent&#45;&gt;RasterComponentModule -->
<g id="edge4" class="edge">
<title>RasterComponent&#45;&gt;RasterComponentModule</title>
<path fill="none" stroke="#000000" d="M406,-122.1061C406,-122.1061 406,-140.991 406,-140.991"/>
<polygon fill="#000000" stroke="#000000" points="402.5001,-140.9909 406,-150.991 409.5001,-140.991 402.5001,-140.9909"/>
</g>
<!-- RasterComponent  -->
<g id="node8" class="node">
<title>RasterComponent </title>
<polygon fill="#fb8072" stroke="#000000" points="466.0947,-252 345.9053,-252 345.9053,-216 466.0947,-216 466.0947,-252"/>
<text text-anchor="middle" x="406" y="-229.8" font-family="Times,serif" font-size="14.00" fill="#000000">RasterComponent </text>
</g>
<!-- RasterComponentModule&#45;&gt;RasterComponent  -->
<g id="edge5" class="edge">
<title>RasterComponentModule&#45;&gt;RasterComponent </title>
<path fill="none" stroke="#000000" stroke-dasharray="5,2" d="M406,-187.1061C406,-187.1061 406,-205.991 406,-205.991"/>
<polygon fill="#000000" stroke="#000000" points="402.5001,-205.9909 406,-215.991 409.5001,-205.991 402.5001,-205.9909"/>
</g>
</g>
</svg>
