<?xml version="1.0" encoding="UTF-8" standalone="no"?>
<!DOCTYPE svg PUBLIC "-//W3C//DTD SVG 1.1//EN"
 "http://www.w3.org/Graphics/SVG/1.1/DTD/svg11.dtd">
<!-- Generated by graphviz version 2.40.1 (20161225.0304)
 -->
<!-- Title: dependencies Pages: 1 -->
<svg width="504pt" height="284pt"
 viewBox="0.00 0.00 504.00 284.00" xmlns="http://www.w3.org/2000/svg" xmlns:xlink="http://www.w3.org/1999/xlink">
<g id="graph0" class="graph" transform="scale(1 1) rotate(0) translate(4 280)">
<title>dependencies</title>
<polygon fill="#ffffff" stroke="transparent" points="-4,4 -4,-280 500,-280 500,4 -4,4"/>
<text text-anchor="start" x="227.0091" y="-42.4" font-family="sans-serif" font-weight="bold" font-size="14.00" fill="#000000">Legend</text>
<polygon fill="#ffffb3" stroke="transparent" points="14,-10 14,-30 34,-30 34,-10 14,-10"/>
<text text-anchor="start" x="37.629" y="-15.4" font-family="sans-serif" font-size="14.00" fill="#000000"> &#160;Declarations</text>
<polygon fill="#8dd3c7" stroke="transparent" points="127,-10 127,-30 147,-30 147,-10 127,-10"/>
<text text-anchor="start" x="150.7251" y="-15.4" font-family="sans-serif" font-size="14.00" fill="#000000"> &#160;Module</text>
<polygon fill="#80b1d3" stroke="transparent" points="213,-10 213,-30 233,-30 233,-10 213,-10"/>
<text text-anchor="start" x="236.7812" y="-15.4" font-family="sans-serif" font-size="14.00" fill="#000000"> &#160;Bootstrap</text>
<polygon fill="#fdb462" stroke="transparent" points="310,-10 310,-30 330,-30 330,-10 310,-10"/>
<text text-anchor="start" x="333.6732" y="-15.4" font-family="sans-serif" font-size="14.00" fill="#000000"> &#160;Providers</text>
<polygon fill="#fb8072" stroke="transparent" points="406,-10 406,-30 426,-30 426,-10 406,-10"/>
<text text-anchor="start" x="429.7258" y="-15.4" font-family="sans-serif" font-size="14.00" fill="#000000"> &#160;Exports</text>
<g id="clust1" class="cluster">
<title>cluster_LineComponentModule</title>
<polygon fill="none" stroke="#000000" stroke-dasharray="1,5" points="73,-70 73,-268 239,-268 239,-70 73,-70"/>
</g>
<g id="clust2" class="cluster">
<title>cluster_LineComponentModule_declarations</title>
<polygon fill="none" stroke="#000000" points="95,-78 95,-130 217,-130 217,-78 95,-78"/>
</g>
<g id="clust5" class="cluster">
<title>cluster_LineComponentModule_exports</title>
<polygon fill="none" stroke="#000000" points="93,-208 93,-260 219,-260 219,-208 93,-208"/>
</g>
<g id="clust8" class="cluster">
<title>cluster_RasterComponentModule</title>
<polygon fill="none" stroke="#000000" stroke-dasharray="1,5" points="247,-70 247,-268 423,-268 423,-70 247,-70"/>
</g>
<g id="clust9" class="cluster">
<title>cluster_RasterComponentModule_declarations</title>
<polygon fill="none" stroke="#000000" points="268,-78 268,-130 402,-130 402,-78 268,-78"/>
</g>
<g id="clust12" class="cluster">
<title>cluster_RasterComponentModule_exports</title>
<polygon fill="none" stroke="#000000" points="267,-208 267,-260 403,-260 403,-208 267,-208"/>
</g>
<!-- LineComponent -->
<g id="node1" class="node">
<title>LineComponent</title>
<polygon fill="#ffffb3" stroke="#000000" points="209.4902,-122 102.5098,-122 102.5098,-86 209.4902,-86 209.4902,-122"/>
<text text-anchor="middle" x="156" y="-99.8" font-family="Times,serif" font-size="14.00" fill="#000000">LineComponent</text>
</g>
<!-- LineComponentModule -->
<g id="node2" class="node">
<title>LineComponentModule</title>
<polygon fill="#8dd3c7" stroke="#000000" points="231.0407,-187 228.0407,-191 207.0407,-191 204.0407,-187 80.9593,-187 80.9593,-151 231.0407,-151 231.0407,-187"/>
<text text-anchor="middle" x="156" y="-164.8" font-family="Times,serif" font-size="14.00" fill="#000000">LineComponentModule</text>
</g>
<!-- LineComponent&#45;&gt;LineComponentModule -->
<g id="edge1" class="edge">
<title>LineComponent&#45;&gt;LineComponentModule</title>
<path fill="none" stroke="#000000" d="M156,-122.1061C156,-122.1061 156,-140.991 156,-140.991"/>
<polygon fill="#000000" stroke="#000000" points="152.5001,-140.9909 156,-150.991 159.5001,-140.991 152.5001,-140.9909"/>
</g>
<!-- LineComponent  -->
<g id="node3" class="node">
<title>LineComponent </title>
<polygon fill="#fb8072" stroke="#000000" points="211.4913,-252 100.5087,-252 100.5087,-216 211.4913,-216 211.4913,-252"/>
<text text-anchor="middle" x="156" y="-229.8" font-family="Times,serif" font-size="14.00" fill="#000000">LineComponent </text>
</g>
<!-- LineComponentModule&#45;&gt;LineComponent  -->
<g id="edge2" class="edge">
<title>LineComponentModule&#45;&gt;LineComponent </title>
<path fill="none" stroke="#000000" stroke-dasharray="5,2" d="M156,-187.1061C156,-187.1061 156,-205.991 156,-205.991"/>
<polygon fill="#000000" stroke="#000000" points="152.5001,-205.9909 156,-215.991 159.5001,-205.991 152.5001,-205.9909"/>
</g>
<!-- RasterComponent -->
<g id="node4" class="node">
<title>RasterComponent</title>
<polygon fill="#ffffb3" stroke="#000000" points="393.594,-122 276.406,-122 276.406,-86 393.594,-86 393.594,-122"/>
<text text-anchor="middle" x="335" y="-99.8" font-family="Times,serif" font-size="14.00" fill="#000000">RasterComponent</text>
</g>
<!-- RasterComponentModule -->
<g id="node5" class="node">
<title>RasterComponentModule</title>
<polygon fill="#8dd3c7" stroke="#000000" points="415.1442,-187 412.1442,-191 391.1442,-191 388.1442,-187 254.8558,-187 254.8558,-151 415.1442,-151 415.1442,-187"/>
<text text-anchor="middle" x="335" y="-164.8" font-family="Times,serif" font-size="14.00" fill="#000000">RasterComponentModule</text>
</g>
<!-- RasterComponent&#45;&gt;RasterComponentModule -->
<g id="edge3" class="edge">
<title>RasterComponent&#45;&gt;RasterComponentModule</title>
<path fill="none" stroke="#000000" d="M335,-122.1061C335,-122.1061 335,-140.991 335,-140.991"/>
<polygon fill="#000000" stroke="#000000" points="331.5001,-140.9909 335,-150.991 338.5001,-140.991 331.5001,-140.9909"/>
</g>
<!-- RasterComponent  -->
<g id="node6" class="node">
<title>RasterComponent </title>
<polygon fill="#fb8072" stroke="#000000" points="395.0947,-252 274.9053,-252 274.9053,-216 395.0947,-216 395.0947,-252"/>
<text text-anchor="middle" x="335" y="-229.8" font-family="Times,serif" font-size="14.00" fill="#000000">RasterComponent </text>
</g>
<!-- RasterComponentModule&#45;&gt;RasterComponent  -->
<g id="edge4" class="edge">
<title>RasterComponentModule&#45;&gt;RasterComponent </title>
<path fill="none" stroke="#000000" stroke-dasharray="5,2" d="M335,-187.1061C335,-187.1061 335,-205.991 335,-205.991"/>
<polygon fill="#000000" stroke="#000000" points="331.5001,-205.9909 335,-215.991 338.5001,-205.991 331.5001,-205.9909"/>
</g>
</g>
</svg>
